<!DOCTYPE svg PUBLIC "-//W3C//DTD SVG 1.1//EN" "http://www.w3.org/Graphics/SVG/1.1/DTD/svg11.dtd">
<!-- Uploaded to: SVG Repo, www.svgrepo.com, Transformed by: SVG Repo Mixer Tools -->
<svg fill="#0f5e67" version="1.1" id="Capa_1" xmlns="http://www.w3.org/2000/svg" xmlns:xlink="http://www.w3.org/1999/xlink" width="64px" height="64px" viewBox="0 0 486.1 486.1" xml:space="preserve">
<g id="SVGRepo_bgCarrier" stroke-width="0"/>
<g id="SVGRepo_tracerCarrier" stroke-linecap="round" stroke-linejoin="round"/>
<g id="SVGRepo_iconCarrier"> <g> <path d="M448.699,54.5c-25.1-28.1-59.799-43.6-97.398-43.6c-29.4,0-61.301,17.6-84.602,30.4c-9.1,5-20.299,11.2-23.799,11.6 c-3.5-0.4-14.7-6.6-23.8-11.6c-23.2-12.8-55-30.5-84.6-30.5c-37.7,0-72.3,15.5-97.4,43.6C13.2,81.2,0,116.399,0,153.7 c0,53.3,19.1,129.2,51.3,203c14.2,32.9,29.5,61.2,44,82c17.1,24.601,31.8,36.601,44.8,36.601c5.7,0,16.1-2.4,22-18.8 c5.9-16.101,11.1-34.801,16.7-54.4c14.8-52.4,33.2-117.4,63.4-117.4h1.9c13.4,0,25.301,11.4,36.6,34.801 c11,23.1,19.4,53.5,27.4,83.1c5.4,19.5,10.4,38,16,53.9c5.701,16.3,16.1,18.6,21.801,18.6c12.9,0,27.6-12.2,44.699-37.2 c14.5-21,29.6-49.7,44-82.8c32.301-74.3,51.5-149.7,51.5-201.4C485.9,116.5,472.6,81.3,448.699,54.5z M417.199,347.8 c-13.699,31.6-28.699,59.899-42.299,79.7c-15.801,23-25.801,28.699-29.301,29c-2.199,0.199-2.9-2.5-4.199-6.2 c-5.4-15.2-10.4-33.3-15.701-52.5c-8.199-30.4-16.898-61.7-28.6-86.3c-14.6-30.601-32-45.4-53.4-45.4h-1.9 c-20.6,0-37.7,14.7-52.1,45.1c-11.7,24.4-20.6,55.7-29.2,85.9c-5.5,19.4-10.6,37.7-16.3,53.2c-1.1,3-2.6,5.399-4.4,6.5 c-2.4,1.3-10-0.8-29.4-28.601c-13.6-19.6-28.6-47.6-42.2-78.8c-6.3-14.5-12.1-29-17.3-43.6c18.6-15.101,92.2-68.6,192.8-68.6 c60.8,0,111.3,19.6,143,36.1c22.602,11.7,39.102,23.7,47.9,30.5C429.4,318.3,423.5,333.1,417.199,347.8z M398.6,252.3 c-34.1-17.9-88.6-39.2-154.7-39.2c-65.6,0-120.1,21.3-154.2,39.2c-20.8,10.899-36.7,21.8-46.8,29.399 C27.5,233.6,18.6,188,18.6,153.8C18.6,92.7,62,29.5,134.4,29.5c21.4,0,46.9,10.6,66.2,22.9c4.7,3,12,8.8,17.7,13.1 c5.7,4.3,12.8,9.3,20.8,14c3.9,2.4,8.099,4.8,12.701,6.7c48.398,20.6,91.299,9.4,90.1,7.3c-1.1-1.9-30.5-2-58.701-9.4 c-15.1-3.9-28.898-11.8-28.199-14.2c0.6-2,10.301-6.7,20.699-12.3c21.5-11.8,50.9-28.1,75.5-28.1C423.801,29.5,467,92.7,467,153.8 c0,33.1-8.801,78.2-24.301,126C432.699,272.399,417.801,262.3,398.6,252.3z M146.9,349.3c-11.8,14.8-28.2,21.5-36.6,14.8 s-5.7-24.1,6.1-39c11.8-14.8,28.2-21.5,36.6-14.8S158.7,334.5,146.9,349.3z M376.5,328.899c7.9,17.101,6.5,34.7-3.301,39.2 c-9.799,4.5-24.1-5.7-32-23c-7.898-17.1-6.5-34.7,3.301-39.2C354.301,301.6,368.6,311.8,376.5,328.899z"/> </g> </g>
</svg>