<!DOCTYPE svg PUBLIC "-//W3C//DTD SVG 1.1//EN" "http://www.w3.org/Graphics/SVG/1.1/DTD/svg11.dtd">
<!-- Uploaded to: SVG Repo, www.svgrepo.com, Transformed by: SVG Repo Mixer Tools -->
<svg fill="#0f5e67" version="1.1" id="Capa_1" xmlns="http://www.w3.org/2000/svg" xmlns:xlink="http://www.w3.org/1999/xlink" width="64px" height="64px" viewBox="0 0 423.107 423.108" xml:space="preserve">
<g id="SVGRepo_bgCarrier" stroke-width="0"/>
<g id="SVGRepo_tracerCarrier" stroke-linecap="round" stroke-linejoin="round"/>
<g id="SVGRepo_iconCarrier"> <g> <path d="M381.479,196.68c-6.19,0-10.748,0.72-16.238,3.303c-1.039,0.64-1.313-0.073-1.234-0.438 c3.963-18.466,6.038-35.305,6.038-49.292c0-25.932-9.181-50.492-25.851-69.154c-17.542-19.641-41.688-30.456-67.988-30.456 c-20.598,0-42.651,12.168-58.772,21.062c-5.326,2.938-13.277,7.749-15.615,7.75c-2.334,0.001-10.253-4.803-15.559-7.74 c-16.073-8.893-38.084-21.071-58.827-21.071c-26.3,0-50.446,10.815-67.987,30.456c-16.67,18.662-25.85,43.223-25.85,69.154 c0,6.043,0.369,9.235,1.083,16.179c0,2.378-1.172,3.632-1.753,3.786C25.458,172.206,18.611,176.12,13,181.73 C-4.333,199.062-4.333,227.265,13,244.599c2.399,2.397,4.454,3.918,7.284,5.69c0.637,0.506,0.557,0.927,0.55,1.104 c-0.463,13.561,4.66,26.794,14.434,36.568c9.326,9.326,21.726,14.461,34.915,14.461c1.405,0,1.883,0,3.267-0.116 c0.917,0,1.075,0.272,1.155,0.444c8.13,17.293,16.549,32.348,24.602,43.934c12.058,17.349,22.51,25.78,31.953,25.78 c4.308,0,12.183-1.799,16.541-13.849c1.199-3.315,2.428-6.965,3.742-11.121c0.065-0.206,0.07-0.653,0.946-0.582 c1.054,0.062,1.362,0.062,2.427,0.062c14.338,0,26.39-4.792,36.634-14.79c0.825-0.666,2.003-0.477,2.286-0.367 c5.339,2.073,11.043,3.147,16.866,3.147h0.001c10.737,0,20.2-3.052,28.443-9.697c0.569-0.367,0.878,0.021,0.921,0.177 c3.3,12.064,6.407,23.174,9.957,33.135c4.271,11.984,12.065,13.777,16.332,13.777h0.006c9.401,0,19.847-8.561,31.93-26.17 c6.423-9.363,12.868-20.497,19.446-33.646c0.121-0.24,0.646-0.772,1.476-0.133c8.704,7.543,18.909,10.988,30.736,10.988 c25.893,0,47.111-20.396,48.438-45.964c0.018-0.353-0.086-1.124,1.057-1.53c14.754-6.562,23.763-20.949,23.763-37.597 C423.107,215.353,404.433,196.68,381.479,196.68z M89.062,214.874c-0.455,0.511-0.903,1.027-1.334,1.554 c-0.028,0.032-0.053,0.069-0.08,0.104c-7.067,8.692-10.913,19.457-10.913,30.812c0,10.513,10.16,26.884,10.16,29.875 c0,5.932-10.651,5.205-16.71,5.205c-7.847,0-15.225-3.055-20.773-8.604c-14.547-14.547-5.347-33.017-6.337-34.854 c-0.99-1.836-8.913-1.49-15.932-8.51c-9.535-9.535-9.535-25.048,0-34.583c4.619-4.619,10.76-7.162,17.292-7.162 c19.267,0,24.129,19.424,27.533,19.193c3.404-0.231,6.984-20.093,22.851-20.093c4.913,0,9.532,1.913,13.006,5.387 c2.011,2.012,3.119,3.413,4.012,6.047c0.428,0.941-0.082,1.155-0.312,1.224c-5.629,1.694-10.909,4.4-15.62,8.027 c-0.114,0.088-0.226,0.178-0.339,0.266c-0.637,0.498-1.263,1.016-1.878,1.549c-0.167,0.145-0.335,0.285-0.5,0.432 c-0.719,0.641-1.427,1.295-2.112,1.981c-0.082,0.082-0.157,0.167-0.237,0.249c-0.504,0.512-1,1.026-1.479,1.557 C89.258,214.641,89.162,214.759,89.062,214.874z M132.821,353.233c-0.672,1.857-1.324,3.249-1.814,3.385 c-0.999,0.276-7.003-1.985-18.804-18.967c-6.982-10.047-14.633-23.624-21.969-38.904c-0.074-0.155-0.329-0.641,0.198-0.885 c3.534-1.551,6.252-2.947,9.339-5.289c0.094-0.072,0.482,0,0.521,0.52c-0.083,14.427,5.549,27.492,15.968,37.911 c5.7,5.7,11.254,9.525,18.607,12.213c0.993,0.344,1.021,0.999,0.863,1.467C134.521,348.26,133.812,350.491,132.821,353.233z M229.395,307.182c-5.02,5.021-11.691,7.784-18.79,7.784c-14.153,0-20.113-9.91-22.433-9.5c-2.32,0.409-1.47,3.927-8.939,11.396 c-6.521,6.521-15.192,10.112-24.415,10.112c-9.224,0-17.896-3.593-24.417-10.114c-17.75-17.75-5.949-36.55-7.74-39.527 c-1.076-1.787-12.599-3.414-20.208-11.022c-11.08-11.08-7.846-26.577,0.711-37.161c0.026-0.031,0.05-0.064,0.076-0.098 c0.238-0.291,0.488-0.576,0.74-0.859c0.076-0.088,0.149-0.178,0.226-0.264c0.246-0.271,0.503-0.536,0.761-0.801 c0.085-0.086,0.166-0.178,0.252-0.265c0.041-0.041,0.084-0.077,0.125-0.118c0.281-0.279,0.567-0.554,0.858-0.818 c0.194-0.176,0.395-0.346,0.594-0.518c0.135-0.117,0.268-0.236,0.405-0.351c0.273-0.228,0.552-0.447,0.833-0.663 c0.057-0.045,0.114-0.091,0.172-0.136c4.482-3.396,9.883-5.429,15.557-5.806l0.645-0.043c0.428-0.019,0.858-0.031,1.29-0.031 c20.588,0,27.568,21.05,30.977,20.82c3.409-0.229,8.445-21.838,26-21.838c5.904,0,11.457,2.299,15.631,6.473 c17.186,17.186-2.645,34.33-0.734,37.347s19.96-3.452,31.824,8.412c5.021,5.02,7.785,11.694,7.785,18.794 C237.181,295.486,234.415,302.163,229.395,307.182z M285.144,337.235c-10.356,15.094-16.772,19.89-18.629,19.275 c-0.461-0.152-1.021-1.385-1.683-3.242c-3.701-10.391-7.09-22.798-10.677-35.941c-0.696-2.551-1.167-4.283-1.873-6.843 c-0.223-0.86-0.026-1.225,0.072-1.425c3.149-6.348,4.824-13.379,4.824-20.67c0-12.441-4.846-24.139-13.644-32.938 c-4.731-4.73-10.042-9.471-16.493-10.646c-1.77-0.322-2.3-1.789-2.3-3.152c0.623-11.694-3.668-23.329-12.296-31.957 c-7.953-7.953-18.527-12.332-29.773-12.332c-10.388,0-20.201,3.734-27.905,10.57c-6.56-4.861-12.804-7.751-20.901-8.869 c-1.166-0.006-1.479-0.719-1.534-0.972c-1.534-7.142-5.09-13.764-10.367-19.041c-7.252-7.252-16.893-11.244-27.148-11.244 c-8.759,0-17.071,2.913-23.829,8.283c-0.307,0.244-0.801,0.856-1.538,0.12c-5.275-3.742-10.642-5.627-17.001-6.777 c-0.633-0.115-1.909-0.625-1.909-3.513c-0.739-6.782-1.121-9.901-1.121-15.669c0-41.184,29.18-83.785,78.012-83.785 c12.673,0,29.368,5.802,44.659,15.518c2.231,1.418,5.412,3.863,8.487,6.227c1.228,0.945,2.439,1.875,3.568,2.725 c3.647,2.732,8.577,6.307,14.37,9.715c2.478,1.463,5.561,3.284,8.869,4.688c12.527,5.318,25.81,8.014,39.476,8.014 c13.94,0,30.963-3.38,30.963-5.363c0-2.554-28.9-1.943-47.912-6.979c-7.553-2-15.884-6.391-16.148-8.138 c-0.097-0.645,2.669-2.267,4.759-3.516c1.838-1.098,3.921-2.342,6.568-3.803c14.598-8.055,34.591-19.086,51.114-19.086 c48.832,0,78.013,42.602,78.013,83.785c0,11.072-1.504,24.494-4.38,39.309c-0.083,0.428-0.2,1.623-1.4,0.812 c-4.662-2.026-8.626-2.664-13.945-2.664c-19.684,0-35.897,15.139-37.612,34.383c-20.485,3.604-36.099,21.526-36.099,43.03 c0,23.195,17.044,42.135,39.896,43.518c1.022-0.018,0.91,0.505,0.802,0.716C295.916,320.139,290.363,329.627,285.144,337.235z M384.683,260.706c-2.344,0.238-6.646-1.24-7.997,0.689c-1.352,1.93,0.783,7.037,1.36,9.32c0.348,1.369,0.308,2.805,0.308,4.179 c0,15.718-12.786,28.503-28.504,28.503c-9.593,0-19.292-4.311-23.79-12.811c-0.977-1.844-2.606-6.362-4.604-6.961 c-1.998-0.6-5.844,2.279-7.673,3.285c-2.809,1.543-6.079,1.9-9.312,1.9c-13.062,0-23.688-10.627-23.688-23.688 c0-13.063,10.626-23.69,23.688-23.69c9.981,0,13.435,3.854,15.684,1.284s-3.423-6.241-3.423-17.244 c0-9.794,7.969-17.764,17.763-17.764c22.292,0,18.381,23.448,21.865,24.23c3.483,0.782,9.093-15.261,25.12-15.261 c11.926,0,21.628,9.701,21.628,21.627C403.107,248.506,394.808,259.676,384.683,260.706z"/> </g> </g>
</svg>